<?xml version="1.0" encoding="UTF-8" standalone="no"?>
<svg
   width="75"
   height="81"
   viewBox="0 0 75 81"
   fill="none"
   version="1.1"
   id="svg5"
   xmlns="http://www.w3.org/2000/svg"
   xmlns:svg="http://www.w3.org/2000/svg">
  <defs
     id="defs5" />
  <path
     d="m 74.6345,24.2087 c 0,-2.606 -1.7831,-4.3891 -4.3891,-4.3891 -2.5375,0 -4.3205,1.7831 -4.3205,4.3891 0,2.606 1.783,4.3891 4.3205,4.3891 2.606,0 4.3891,-1.7831 4.3891,-4.3891 z"
     fill="#BD2230"
     id="path1"
     style="fill:#ffffff" />
  <path
     d="M 74.086,31.7524 H 66.4736 V 60.2816 H 74.086 Z"
     fill="#BD2230"
     id="path2"
     style="fill:#ffffff" />
  <path
     d="m 27.9317,69.2656 c 3.909,1.7145 8.161,2.606 12.6187,2.606 8.7782,0 16.7334,-3.5662 22.4941,-9.2583 0.2744,-0.3429 0.5487,-0.6172 0.8916,-0.9601 l 5.8293,5.8979 c -0.2744,0.2743 -0.5487,0.6172 -0.8916,0.8915 -7.2694,7.2695 -17.2821,11.7957 -28.3234,11.7957 -5.555,0 -10.8356,-1.1658 -15.6362,-3.1546 l 0.0686,-0.2058 z"
     fill="#272362"
     id="path3"
     style="fill:#ffffff" />
  <path
     d="m 40.5503,0 c 11.0414,0 21.1226,4.52626 28.3235,11.7271 l 0.8915,0.9602 -5.8293,5.8978 C 63.5931,18.2422 63.3188,17.9679 63.0445,17.625 57.2838,11.8643 49.3285,8.36673 40.5503,8.36673 c -8.7782,0 -16.7334,3.49757 -22.4941,9.25827 -5.7607,5.7607 -9.25831,13.716 -9.25831,22.4942 0,7.8181 2.81181,14.9504 7.47521,20.5053 l -3.429,8.5039 -0.6858,-0.6858 C 4.95742,61.2417 0.431152,51.1605 0.431152,40.1192 0.431152,29.0778 4.88884,18.9966 12.1583,11.7957 l 0.0686,-0.0686 C 19.4278,4.45769 29.509,0 40.5503,0 Z"
     fill="#272362"
     id="path4"
     style="fill:#ffffff" />
  <path
     d="M 61.3982,60.2817 45.1448,19.9568 h -9.1897 l -17.3506,43.1367 -3.2919,8.161 c 2.0574,1.7145 4.3891,3.2232 6.7894,4.4577 l 3.0175,-7.8181 6.1036,-15.4991 h 18.7223 l 2.9489,7.8867 z M 47.6137,45.9485 H 33.4863 L 40.55,28.3235 Z"
     fill="#272362"
     id="path5"
     style="fill:#ffffff" />
</svg>
